<svg width="25" height="24" viewBox="0 0 25 24" fill="none" xmlns="http://www.w3.org/2000/svg">
<path d="M17.5193 2.19245C18.8446 2.19626 20.1145 2.70456 21.0516 3.60634C21.9888 4.50812 22.517 5.7301 22.521 7.0054V16.6303C22.517 17.9056 21.9888 19.1276 21.0516 20.0293C20.1145 20.9311 18.8446 21.4394 17.5193 21.4432H7.51711C6.19181 21.4394 4.92192 20.9311 3.98479 20.0293C3.04766 19.1276 2.51943 17.9056 2.51547 16.6303V7.0054C2.51943 5.7301 3.04766 4.50812 3.98479 3.60634C4.92192 2.70456 6.19181 2.19626 7.51711 2.19245H17.5193ZM17.5193 0.267578H7.51711C3.66594 0.267578 0.515137 3.29952 0.515137 7.0054V16.6303C0.515137 20.3362 3.66594 23.3681 7.51711 23.3681H17.5193C21.3705 23.3681 24.5213 20.3362 24.5213 16.6303V7.0054C24.5213 3.29952 21.3705 0.267578 17.5193 0.267578Z" fill="#181818"/>
<path d="M19.0191 7.00597C18.7224 7.00597 18.4323 6.9213 18.1856 6.76265C17.9388 6.60401 17.7465 6.37852 17.633 6.1147C17.5194 5.85089 17.4897 5.56059 17.5476 5.28052C17.6055 5.00046 17.7484 4.7432 17.9582 4.54128C18.168 4.33937 18.4354 4.20186 18.7264 4.14615C19.0175 4.09044 19.3192 4.11903 19.5933 4.22831C19.8675 4.33759 20.1018 4.52264 20.2667 4.76007C20.4315 4.9975 20.5195 5.27664 20.5195 5.56219C20.5199 5.75191 20.4814 5.93983 20.4062 6.11519C20.3309 6.29054 20.2204 6.44986 20.081 6.58401C19.9416 6.71816 19.776 6.82449 19.5938 6.8969C19.4116 6.96932 19.2163 7.00638 19.0191 7.00597ZM12.5177 7.96815C13.309 7.96815 14.0826 8.19397 14.7406 8.61704C15.3986 9.04011 15.9114 9.64144 16.2143 10.345C16.5171 11.0485 16.5964 11.8227 16.442 12.5696C16.2876 13.3164 15.9065 14.0025 15.3469 14.541C14.7874 15.0794 14.0744 15.4461 13.2982 15.5947C12.5221 15.7433 11.7176 15.667 10.9865 15.3756C10.2553 15.0842 9.63043 14.5907 9.19077 13.9575C8.75112 13.3243 8.51645 12.5799 8.51645 11.8184C8.51758 10.7976 8.9395 9.8189 9.68963 9.09707C10.4398 8.37525 11.4568 7.96925 12.5177 7.96815ZM12.5177 6.04328C11.3307 6.04328 10.1703 6.38199 9.18338 7.01657C8.19643 7.65115 7.4272 8.5531 6.97296 9.60837C6.51871 10.6636 6.39986 11.8248 6.63143 12.9451C6.863 14.0654 7.4346 15.0944 8.27393 15.902C9.11326 16.7097 10.1826 17.2597 11.3468 17.4826C12.511 17.7054 13.7177 17.591 14.8143 17.1539C15.911 16.7168 16.8483 15.9766 17.5078 15.0269C18.1672 14.0772 18.5192 12.9606 18.5192 11.8184C18.5192 10.2868 17.8869 8.81783 16.7614 7.73478C15.6359 6.65173 14.1094 6.04328 12.5177 6.04328Z" fill="#181818"/>
</svg>
