<svg width="24" height="20" viewBox="0 0 24 20" fill="none" xmlns="http://www.w3.org/2000/svg">
<path d="M23.4849 2.75508C22.6162 3.13225 21.6971 3.38073 20.7567 3.49269C21.745 2.91435 22.4883 1.99556 22.8471 0.908642C21.9126 1.45466 20.892 1.83778 19.8289 2.04157C19.3813 1.57275 18.8429 1.19978 18.2465 0.945351C17.6501 0.69092 17.0082 0.560334 16.3597 0.561532C13.7342 0.561532 11.6096 2.65384 11.6096 5.23306C11.6077 5.59182 11.6488 5.94951 11.7321 6.2985C9.84945 6.2103 8.00596 5.73038 6.31956 4.88945C4.63317 4.04851 3.14099 2.86507 1.93851 1.41484C1.51665 2.12551 1.29355 2.93637 1.29252 3.76266C1.29252 5.38251 2.13824 6.81434 3.41527 7.65319C2.65867 7.63525 1.91757 7.43514 1.25489 7.06985V7.1277C1.25489 9.39356 2.8952 11.2786 5.06619 11.7076C4.65794 11.8164 4.23724 11.8715 3.81473 11.8715C3.51493 11.8721 3.21581 11.843 2.92173 11.7848C3.52527 13.6408 5.28184 14.9907 7.36261 15.0293C5.67184 16.3314 3.596 17.0352 1.46138 17.03C1.08247 17.0294 0.703925 17.0069 0.327637 16.9625C2.4992 18.3482 5.02346 19.0811 7.59998 19.0741C16.3496 19.0741 21.1296 11.9535 21.1296 5.77783C21.1296 5.57535 21.1243 5.37287 21.1146 5.17521C22.0424 4.51573 22.8451 3.69619 23.4849 2.75508Z" fill="#181818"/>
</svg>
